<svg height="512" viewBox="0 0 512 512" width="512" xmlns="http://www.w3.org/2000/svg"><path d="m471 256h-392v-144.768a30.5 30.5 0 0 1 61 0v9.048a53.075 53.075 0 0 0 -44 52.22v5c0 4.418 3.582 8.5 8 8.5h90c4.418 0 8-4.082 8-8.5v-5a53.068 53.068 0 0 0 -46-52.523v-8.745a46.5 46.5 0 0 0 -93 0v144.768h-22a7.776 7.776 0 0 0 -8 7.732v30a8.233 8.233 0 0 0 8 8.268h22v41.732a87.551 87.551 0 0 0 17.889 53.12l-11.152 11.148a23 23 0 1 0 32.526 32.527l15.374-15.24a87.6 87.6 0 0 0 33.363 6.713h210a87.6 87.6 0 0 0 33.363-6.709l15.374 15.309a23.02 23.02 0 0 0 32.526-32.585l-11.152-11.157a87.563 87.563 0 0 0 17.889-53.126v-41.732h22a8.233 8.233 0 0 0 8-8.268v-30a7.776 7.776 0 0 0 -8-7.732zm-285.12-86h-73.76c1.532-20 17.488-34 36.88-34s35.348 14 36.88 34zm-136.88 116v-14h14v14zm41.95 143.218a7 7 0 1 1 -9.9-9.9l10.637-10.636a88.567 88.567 0 0 0 11.141 8.657zm340 0a7 7 0 0 1 -9.9 0l-11.878-11.879a88.567 88.567 0 0 0 11.141-8.657l10.637 10.636a7.009 7.009 0 0 1 0 9.9zm2.05-85.486c0 39.7-32.3 72.268-72 72.268h-210c-39.7 0-72-32.566-72-72.268v-41.732h354zm30-57.732h-384v-14h384z"/></svg>