<svg enable-background="new 0 0 374 374" viewBox="0 0 374 374" xmlns="http://www.w3.org/2000/svg"><path d="m337.6 158.6v-.4-60.4c0-27.2-19.2-37.2-37.2-37.2h-228c-18 0-37.2 9.6-37.2 37.2v60.4.4c-18 2-35.2 14-35.2 41.6v47.2c0 8 6.4 14.4 14.4 14.4h4.8v37.2c0 8 6.4 14.4 14.4 14.4h13.6c8 0 14.4-6.4 14.4-14.4v-37.6h250.8v37.6c0 8 6.4 14.4 14.4 14.4h13.6c8 0 14.4-6.4 14.4-14.4v-37.6h4.8c8 0 14.4-6.4 14.4-14.4v-46.8c-1.2-27.6-18.4-39.6-36.4-41.6zm-288.8-60.8h.8c0-18.8 12.4-22.8 22.8-22.8h228c10.4 0 22.8 4 22.8 22.8v60.4h-10.8v-34.4c0-8-6.4-14.4-14.4-14.4h-88c-8 0-14.4 6.4-14.4 14.4v34.4h-16.8v-34.4c0-8-6.4-14.4-14.4-14.4h-88c-8 0-14.4 6.4-14.4 14.4v34.4h-13.2zm249.2 26v34.4h-88v-34.4zm-132.8 0v34.4h-88v-34.4zm-118.4 175.2h-13.6v-37.6h13.6zm292.8 0h-13.6v-37.6h13.6zm18.8-51.6h-18.8-13.6-279.2-13.6-19.2v-21.2h344.4zm0-35.6h-344.4v-11.6c0-24 17.6-27.6 27.6-27.6h7.6 27.6 88 45.2 88 25.2 7.6c10.4 0 27.6 3.6 27.6 27.6z"/></svg>