<svg enable-background="new 0 0 389.262 389.262" height="389.262" viewBox="0 0 389.262 389.262" width="389.262" xmlns="http://www.w3.org/2000/svg"><path d="m374.262 100.143c8.284 0 15-6.716 15-15v-19.022c0-8.284-6.716-15-15-15h-36.119v-36.121c0-8.284-6.716-15-15-15h-19.023c-8.284 0-15 6.716-15 15v36.12h-188.977v-36.12c0-8.284-6.716-15-15-15h-19.023c-8.284 0-15 6.716-15 15v36.12h-36.12c-8.284 0-15 6.716-15 15v19.022c0 8.284 6.716 15 15 15h36.119v188.978h-36.119c-8.284 0-15 6.716-15 15v19.023c0 8.283 6.716 14.999 15 14.999h36.119v36.119c0 8.284 6.716 15 15 15h19.023c8.284 0 15-6.716 15-15v-36.119h188.977v36.119c0 8.284 6.716 15 15 15h19.022c8.284 0 15-6.716 15-15v-36.119h36.119c8.284 0 15-6.716 15-14.999v-19.023c0-8.284-6.716-15-15-15h-36.119v-188.977zm-85.143 0v188.978h-188.976v-188.978z"/></svg>