<svg height="44" width="46" xmlns="http://www.w3.org/2000/svg"><path d="m43.282 27.26h-.092v4.257c0 4.064-2.975 7.452-6.881 8.14v2.558h5.134c.496 0 .898.398.898.89 0 .491-.402.89-.898.89h-36.088c-.497 0-.899-.399-.899-.89 0-.492.402-.89.899-.89h4.34v-2.558c-3.906-.688-6.882-4.076-6.882-8.14v-4.257h-.091c-1.503 0-2.727-1.212-2.727-2.701 0-1.178.765-2.181 1.828-2.55v-3.498c0-1.037.845-1.882 1.889-1.895v-11.3c0-2.933 2.408-5.318 5.368-5.318s5.369 2.385 5.369 5.318v2.091c1.538.452 2.721 1.771 2.929 3.417l.185 1.47c.046.364-.068.731-.314 1.006-.245.276-.599.434-.969.434h-6.002c-.371 0-.724-.158-.97-.434-.245-.275-.36-.642-.313-1.006l.185-1.47c.231-1.835 1.675-3.264 3.471-3.538v-1.97c0-1.951-1.602-3.538-3.571-3.538s-3.571 1.587-3.571 3.538v11.3h.063c1.054 0 1.912.85 1.912 1.895v3.347h35.798c1.503 0 2.726 1.212 2.726 2.701s-1.223 2.701-2.726 2.701zm-32.319-16.216-.114.91h4.86l-.115-.91c-.146-1.154-1.141-2.024-2.315-2.024-1.175 0-2.17.87-2.316 2.024zm21.908 31.171h1.641v-2.431h-2.877zm-2.013 0-1.236-2.431h-13.24l-1.236 2.431zm-19.366 0h1.641l1.236-2.431h-2.877zm-5.805-23.704c0-.063-.052-.114-.115-.114h-1.836c-.064 0-.115.051-.115.114v3.347h2.066zm37.595 5.128h-40.56c-.512 0-.929.413-.929.92 0 .508.417.92.929.92h26.453c.497 0 .899.399.899.891 0 .491-.402.89-.899.89h-24.564v4.257c0 3.577 2.938 6.487 6.549 6.487h23.684c3.611 0 6.549-2.91 6.549-6.487v-4.257h-5.028c-.496 0-.899-.399-.899-.89 0-.492.403-.891.899-.891h6.917c.512 0 .929-.412.929-.92 0-.507-.417-.92-.929-.92zm-10.512 3.621c-.496 0-.9-.399-.9-.89 0-.492.401-.891.898-.891h.002c.496 0 .899.399.899.891 0 .491-.403.89-.899.89zm4.874-6.592c-1.961 0-3.557-1.58-3.557-3.523s1.596-3.523 3.557-3.523 3.556 1.58 3.556 3.523-1.595 3.523-3.556 3.523zm0-5.266c-.97 0-1.76.782-1.76 1.743s.79 1.743 1.76 1.743 1.759-.782 1.759-1.743-.789-1.743-1.759-1.743zm-1.863-3.338c-2.542 0-4.611-2.049-4.611-4.568 0-2.518 2.069-4.567 4.611-4.567s4.611 2.049 4.611 4.567c0 2.519-2.069 4.568-4.611 4.568zm0-7.354c-1.551 0-2.813 1.249-2.813 2.786s1.262 2.787 2.813 2.787 2.813-1.25 2.813-2.787-1.262-2.786-2.813-2.786zm-3.45 11.723c0 1.536-1.263 2.787-2.815 2.787-1.551 0-2.813-1.251-2.813-2.787 0-1.538 1.262-2.787 2.813-2.787 1.552 0 2.815 1.249 2.815 2.787zm-2.815-1.007c-.56 0-1.016.452-1.016 1.007 0 .554.456 1.006 1.016 1.006.561 0 1.017-.452 1.017-1.006 0-.555-.456-1.007-1.017-1.007z" fill="#fff" fill-rule="evenodd"/></svg>