<svg height="42" width="30" xmlns="http://www.w3.org/2000/svg"><path d="m29.302 21h-2.79c-.386 0-.698.314-.698.7v.7h-1.461l-5.535-13.484c-.053-1.029-.556-1.981-1.376-2.6 0-.006 0-.011 0-.016v-5.6c0-.386-.313-.7-.698-.7h-2.791c-.385 0-.697.314-.697.7v5.6.016c-.819.617-1.324 1.567-1.379 2.593l-5.935 13.491h-1.756v-.7c0-.386-.312-.7-.698-.7h-2.79c-.386 0-.698.314-.698.7v2.8c0 .386.312.7.698.7h2.79c.386 0 .698-.314.698-.7v-.7h1.14l-3.777 8.584c-.102.251-.154.519-.154.789v3.227c.004.896.575 1.691 1.42 1.979-.012.039-.02.08-.024.121v2.8c0 .387.312.7.697.7.386 0 .698-.313.698-.7v-2.8c-.004-.041-.012-.082-.024-.121.845-.288 1.415-1.083 1.42-1.979v-1.26l4.795-11.34h4.274v1.4c0 .387.313.7.698.7s.698-.313.698-.7v-1.4h3.922l4.45 11.332v1.968c.003.887.562 1.676 1.395 1.971v2.229c0 .387.312.7.698.7.385 0 .697-.313.697-.7v-2.229c.834-.295 1.392-1.084 1.396-1.971v-3.927c0-.272-.053-.541-.155-.793l-3.522-8.58h.886v.7c0 .386.312.7.698.7h2.791c.385 0 .697-.314.697-.7v-2.8c0-.386-.312-.7-.698-.7zm-26.511 2.8h-1.396v-1.4h1.396zm11.86-18.2v-4.2h1.395v4.2zm.698 1.4c1.156 0 2.093.94 2.093 2.1s-.937 2.1-2.093 2.1-2.093-.94-2.093-2.1.937-2.1 2.093-2.1zm-11.163 27.86v1.54c0 .387-.312.7-.698.7-.385 0-.697-.313-.697-.7v-3.227c-.001-.083.014-.165.042-.243l9.626-21.87c.333.485.783.878 1.307 1.143zm11.86-12.46v-1.4c0-.387-.312-.7-.697-.7-.386 0-.698.313-.698.7v1.4h-3.682l4.154-9.823c.076.005.148.023.226.023.077 0 .139-.017.214-.022l3.857 9.822zm11.163 10.773v3.927c0 .387-.312.7-.697.7-.386 0-.698-.313-.698-.7v-2.232l-8.897-22.659c.514-.258.956-.64 1.288-1.11l8.953 21.812c.034.083.051.172.051.262zm1.396-9.373h-1.396v-1.4h1.396z" fill="#fff" fill-rule="evenodd"/></svg>