<svg height="43" width="43" xmlns="http://www.w3.org/2000/svg"><path d="m42.283 18.633h-.845l-1.319-6.593c-.068-.334-.362-.574-.702-.574h-8.6c-.024 0-.045.014-.069.016-.066.005-.131.02-.194.043-.029.013-.058.026-.085.042-.058.034-.113.076-.16.126-.013.014-.033.02-.046.036s-.009.021-.015.03c-.042.059-.075.123-.097.192-.011.023-.022.047-.03.072-.003.006-.005.011-.007.017l-1.318 6.593h-10.163v-.716c0-1.187-.962-2.15-2.15-2.15v-1.433h5.734c1.187 0 2.15-.964 2.15-2.151v-10.033c0-1.187-.963-2.15-2.15-2.15h-17.2c-1.188 0-2.15.963-2.15 2.15v10.033c0 1.187.962 2.151 2.15 2.151h5.733v1.433c-1.187 0-2.15.963-2.15 2.15v.716h-7.883c-.396 0-.717.321-.717.717v22.933c0 .396.321.717.717.717h2.866c.396 0 .717-.321.717-.717v-5.016h34.4v5.016c0 .396.321.717.717.717h2.866c.396 0 .717-.321.717-.717v-22.933c0-.396-.321-.717-.717-.717zm-3.454-5.733 1.147 5.733h-7.139l-1.146-5.733zm-8.094 3.345.597 2.388h-1.075zm-26.435-14.095c0-.396.321-.717.717-.717h17.2c.395 0 .716.321.716.717v7.883h-18.633zm0 10.033v-.717h18.633v.717c0 .396-.321.717-.716.717h-17.2c-.396 0-.717-.321-.717-.717zm7.883 2.151h2.867v1.433h-2.867zm-2.15 3.583c0-.396.321-.717.717-.717h5.733c.396 0 .717.321.717.717v.716h-7.167zm-5.733 17.917v-12.9h34.4v12.9zm37.267 5.733h-1.434v-19.351c0-.395-.321-.716-.716-.716h-35.834c-.395 0-.716.321-.716.716v19.351h-1.434v-21.5h40.134z" fill="#cfb579" fill-rule="evenodd"/></svg>