<svg height="43" width="43" xmlns="http://www.w3.org/2000/svg"><path d="m14.648 29.469c.156.156.245.373.245.594 0 .222-.089.438-.245.595-.157.157-.374.246-.595.246s-.437-.089-.593-.246c-.157-.157-.247-.374-.247-.595s.09-.437.247-.594c.156-.157.372-.247.593-.247s.438.09.595.247zm27.319-3.108-8.235 8.241h6.747c1.389 0 2.52 1.132 2.52 2.522s-1.131 2.521-2.52 2.521h-3.752l1.559 1.991c.198.253.235.597.094.886-.14.289-.434.473-.755.473h-3.443c-.199 0-.392-.071-.544-.2l-3.709-3.15h-16.858l-3.709 3.15c-.151.129-.344.2-.543.2h-3.443c-.322 0-.615-.184-.756-.473-.14-.289-.104-.633.095-.886l1.559-1.991h-3.755c-1.389 0-2.519-1.131-2.519-2.521 0-.796.37-1.506.947-1.968-.587-.631-.946-1.475-.946-2.403 0-1.947 1.582-3.53 3.527-3.53h6.802c.464 0 .84.376.84.84 0 .465-.376.841-.84.841h-6.802c-1.019 0-1.848.83-1.848 1.849 0 1.02.829 1.849 1.848 1.849h27.064c.493 0 .957-.192 1.306-.541l8.881-8.889c.349-.349.541-.814.541-1.307 0-.494-.192-.958-.541-1.308-.349-.349-.813-.542-1.306-.542-.494 0-.958.193-1.307.542l-8.094 8.101c-.157.157-.371.246-.594.246h-12.205c-.464 0-.84-.376-.84-.841 0-.464.376-.84.84-.84h11.586l-7.871-13.718-4.493 2.595c-.018.013-.036.025-.056.037-.015.008-.03.015-.045.022l-6.392 3.693c-.129.075-.274.113-.42.113-.073 0-.146-.009-.218-.029-.215-.057-.398-.198-.509-.392-3.818-6.62-1.758-15.049 4.545-19.195l-.259-.449c-.232-.402-.095-.917.307-1.148.402-.233.915-.095 1.147.307l.26.449c6.739-3.39 15.062-.96 18.883 5.659.111.192.141.422.084.637-.058.216-.199.4-.392.511l-6.378 3.685c-.018.013-.036.025-.056.036-.019.012-.039.021-.059.031l-4.495 2.597 7.746 13.5 6.791-6.795c.666-.667 1.552-1.035 2.494-1.035s1.828.368 2.494 1.035 1.033 1.553 1.033 2.496-.367 1.829-1.033 2.496zm-7.477 14.953h1.409l-1.307-1.669h-2.067zm-25.979 0 1.964-1.669h-2.067l-1.307 1.669zm-5.992-5.03c-.463 0-.84.376-.84.84 0 .463.377.84.84.84h37.96c.463 0 .84-.377.84-.84 0-.464-.377-.84-.84-.84zm9.429-27.972c-.092-.925-.09-1.774.002-2.538-3.46 3.779-4.384 9.421-2.037 14.188l4.967-2.87c-1.627-3.004-2.662-6.095-2.932-8.78zm19.891-1.019c-2.418-3.618-6.44-5.629-10.563-5.629-.911 0-1.827.1-2.732.3.707.303 1.442.725 2.196 1.268 2.189 1.576 4.346 4.019 6.132 6.931zm-6.422 3.711c-1.666-2.708-3.655-4.965-5.658-6.408-1.526-1.099-2.924-1.614-3.984-1.492l3.205 5.555c.232.402.094.916-.308 1.149-.132.076-.276.112-.419.112-.29 0-.572-.15-.728-.42l-3.204-5.555c-.636.857-.889 2.326-.701 4.198.246 2.458 1.205 5.31 2.716 8.109zm-5.631-.085c.221 0 .438.089.594.245.156.157.246.373.246.595 0 .221-.09.438-.246.594-.156.157-.373.247-.594.247s-.437-.09-.594-.247c-.156-.156-.246-.373-.246-.594 0-.222.09-.438.246-.595.157-.156.373-.245.594-.245z" fill="#fff" fill-rule="evenodd"/></svg>